<svg width="42" height="75" viewBox="0 0 42 75" fill="none" xmlns="http://www.w3.org/2000/svg">
<path d="M14.9617 44.5946C14.7026 48.8498 22.1328 57.8013 19.054 54.7297C14.4474 50.9402 12.3206 45.6081 12.9155 42.5676C13.5104 39.527 14.7896 38.1575 19.054 33.4459C23.0364 29.0459 23.5014 27.6862 24.1694 23.3108C24.9666 18.0895 23.5189 15.2444 21.1002 10.1351C29.0863 19.8949 28.0135 25.1855 21.1002 34.4594C17.3385 38.1987 15.2422 39.9872 14.9617 44.5946Z" fill="white"/>
<path fill-rule="evenodd" clip-rule="evenodd" d="M6.04914 24.5621C4.15663 26.9363 2.14965 29.4542 0.638619 33.4459C-2.06939 46.8589 3.98287 51.5937 15.9848 59.4831C16.164 59.6327 16.3391 59.7785 16.5098 59.9207C18.9861 61.9832 20.5319 63.2706 20.0771 63.8513C18.0309 68.9189 18.624 71.6068 21.1002 75C24.4949 70.6623 24.1694 66.8919 23.1463 62.8378C25.2283 60.851 25.732 60.5059 28.7169 58.461C29.3488 58.0281 30.0919 57.5191 30.9847 56.9022C36.0947 53.3709 45.6541 45.6081 40.5387 36.4865C35.8913 30.3904 25.1925 30.4054 23.1463 40.5405C27.2387 33.4459 36.4464 32.4324 38.4926 41.554C38.2425 45.9168 36.1814 48.9924 32.4626 52.6228C29.3005 54.7827 25.0825 58.0017 22.1233 61.8243C21.3813 60.7329 20.2911 59.8081 18.9357 58.6583C17.2757 57.2501 15.218 55.5045 12.9155 52.7027C8.73301 47.613 8.42924 41.7665 13.5104 34.4594C16.6222 31.3425 18.8106 28.6828 20.0771 26.3513C22.1228 22.6565 22.1233 18.2432 20.0771 15.2027C15.0967 8.85095 16.7873 3.20113 18.0309 1.5576e-09C13.6198 5.10292 14.9617 11.1486 15.9848 15.2027C17.0079 19.2568 16.3734 22.275 14.9617 25.3378C11.9179 28.5449 9.5924 28.5644 8.97657 26.3513C9.03996 24.5074 9.9805 23.0333 11.8924 20.2703C13.1329 17.3291 13.0654 15.7852 11.8924 13.1757L10.8694 12.1622L10.8694 16.2162C9.83062 19.818 8.00074 22.1137 6.04914 24.5621ZM20.0771 68.9189C20.0771 67.6673 21.1884 65.8651 21.1884 65.8651C21.1884 65.8651 22.1593 67.6823 22.1231 68.9334C22.0868 70.1845 21.0124 71.9437 21.0124 71.9437C21.0124 71.9437 20.0771 70.1705 20.0771 68.9189Z" fill="white"/>
</svg>
