<svg width="35" height="63" viewBox="0 0 35 63" fill="none" xmlns="http://www.w3.org/2000/svg">
<path d="M12.3959 37.1782C12.1821 40.7226 18.3132 48.1789 15.7727 45.6204C11.9715 42.4639 10.2165 38.0224 10.7074 35.4898C11.1983 32.9572 12.2539 31.8164 15.7727 27.8919C19.0589 24.2268 19.4426 23.0943 19.9938 19.4497C20.6516 15.1006 19.457 12.7307 17.4612 8.47488C24.0511 16.6044 23.1658 21.0113 17.4612 28.7361C14.3571 31.8508 12.6274 33.3404 12.3959 37.1782Z" fill="#80543B"/>
<path fill-rule="evenodd" clip-rule="evenodd" d="M5.0415 20.492C3.47985 22.4696 1.82376 24.5669 0.576896 27.8918C-1.65768 39.0643 3.33647 43.0082 13.2401 49.5798C13.388 49.7044 13.5325 49.8259 13.6734 49.9443C15.7167 51.6622 16.9922 52.7346 16.617 53.2183C14.9285 57.4394 15.4179 59.6783 17.4612 62.5047C20.2624 58.8916 19.9938 55.751 19.1496 52.3741C20.8676 50.7192 21.2832 50.4317 23.7463 48.7284C24.2677 48.3678 24.8809 47.9438 25.6175 47.43C29.8342 44.4886 37.7224 38.0224 33.5013 30.4245C29.6664 25.3467 20.838 25.3592 19.1496 33.8014C22.5265 27.8918 30.1244 27.0476 31.8128 34.6456C31.6065 38.2796 29.9057 40.8414 26.8371 43.8654C24.2278 45.6645 20.7472 48.3459 18.3054 51.5299C17.6932 50.6208 16.7935 49.8505 15.6751 48.8927C14.3053 47.7198 12.6074 46.2658 10.7074 43.932C7.25614 39.6925 7.00549 34.8226 11.1983 28.7361C13.766 26.1398 15.5718 23.9244 16.617 21.9823C18.305 18.9046 18.3054 15.2286 16.617 12.696C12.5073 7.40521 13.9023 2.69913 14.9285 0.0327148C11.2886 4.28325 12.3959 9.31909 13.2401 12.696C14.0843 16.0728 13.5608 18.5869 12.3959 21.1381C9.88426 23.8095 7.96529 23.8257 7.45713 21.9823C7.50943 20.4464 8.28553 19.2185 9.86322 16.917C10.8868 14.4672 10.8311 13.1812 9.86322 11.0075L9.019 10.1633L9.01906 13.5402C8.16187 16.5403 6.6519 18.4526 5.0415 20.492ZM16.617 57.4394C16.617 56.3969 17.5339 54.8957 17.5339 54.8957C17.5339 54.8957 18.3351 56.4094 18.3052 57.4515C18.2753 58.4937 17.3888 59.9589 17.3888 59.9589C17.3888 59.9589 16.617 58.482 16.617 57.4394Z" fill="#80543B"/>
<path d="M12.3959 37.1782C12.1821 40.7226 18.3132 48.1789 15.7727 45.6204C11.9715 42.4639 10.2165 38.0224 10.7074 35.4898C11.1983 32.9572 12.2539 31.8164 15.7727 27.8919C19.0589 24.2268 19.4426 23.0943 19.9938 19.4497C20.6516 15.1006 19.457 12.7307 17.4612 8.47488C24.0511 16.6044 23.1658 21.0113 17.4612 28.7361C14.3571 31.8508 12.6274 33.3404 12.3959 37.1782Z" stroke="black" stroke-width="0.1"/>
<path fill-rule="evenodd" clip-rule="evenodd" d="M5.0415 20.492C3.47985 22.4696 1.82376 24.5669 0.576896 27.8918C-1.65768 39.0643 3.33647 43.0082 13.2401 49.5798C13.388 49.7044 13.5325 49.8259 13.6734 49.9443C15.7167 51.6622 16.9922 52.7346 16.617 53.2183C14.9285 57.4394 15.4179 59.6783 17.4612 62.5047C20.2624 58.8916 19.9938 55.751 19.1496 52.3741C20.8676 50.7192 21.2832 50.4317 23.7463 48.7284C24.2677 48.3678 24.8809 47.9438 25.6175 47.43C29.8342 44.4886 37.7224 38.0224 33.5013 30.4245C29.6664 25.3467 20.838 25.3592 19.1496 33.8014C22.5265 27.8918 30.1244 27.0476 31.8128 34.6456C31.6065 38.2796 29.9057 40.8414 26.8371 43.8654C24.2278 45.6645 20.7472 48.3459 18.3054 51.5299C17.6932 50.6208 16.7935 49.8505 15.6751 48.8927C14.3053 47.7198 12.6074 46.2658 10.7074 43.932C7.25614 39.6925 7.00549 34.8226 11.1983 28.7361C13.766 26.1398 15.5718 23.9244 16.617 21.9823C18.305 18.9046 18.3054 15.2286 16.617 12.696C12.5073 7.40521 13.9023 2.69913 14.9285 0.0327148C11.2886 4.28325 12.3959 9.31909 13.2401 12.696C14.0843 16.0728 13.5608 18.5869 12.3959 21.1381C9.88426 23.8095 7.96529 23.8257 7.45713 21.9823C7.50943 20.4464 8.28553 19.2185 9.86322 16.917C10.8868 14.4672 10.8311 13.1812 9.86322 11.0075L9.019 10.1633L9.01906 13.5402C8.16187 16.5403 6.6519 18.4526 5.0415 20.492ZM16.617 57.4394C16.617 56.3969 17.5339 54.8957 17.5339 54.8957C17.5339 54.8957 18.3351 56.4094 18.3052 57.4515C18.2753 58.4937 17.3888 59.9589 17.3888 59.9589C17.3888 59.9589 16.617 58.482 16.617 57.4394Z" stroke="black" stroke-width="0.1"/>
</svg>
