<svg width="156" height="63" viewBox="0 0 156 63" fill="none" xmlns="http://www.w3.org/2000/svg">
<path d="M12.3959 37.1782C12.1821 40.7226 18.3132 48.1789 15.7727 45.6204C11.9715 42.4639 10.2165 38.0224 10.7074 35.4898C11.1983 32.9572 12.2539 31.8164 15.7727 27.8919C19.0589 24.2268 19.4426 23.0943 19.9938 19.4497C20.6516 15.1006 19.457 12.7307 17.4612 8.47488C24.0511 16.6044 23.1658 21.0113 17.4612 28.7361C14.3571 31.8508 12.6274 33.3404 12.3959 37.1782Z" fill="#80543B"/>
<path fill-rule="evenodd" clip-rule="evenodd" d="M5.0415 20.492C3.47985 22.4696 1.82376 24.5669 0.576896 27.8918C-1.65768 39.0643 3.33647 43.0082 13.2401 49.5798C13.388 49.7044 13.5325 49.8259 13.6734 49.9443C15.7167 51.6622 16.9922 52.7346 16.617 53.2183C14.9285 57.4394 15.4179 59.6783 17.4612 62.5047C20.2624 58.8916 19.9938 55.751 19.1496 52.3741C20.8676 50.7192 21.2832 50.4317 23.7463 48.7284C24.2677 48.3678 24.8809 47.9438 25.6175 47.43C29.8342 44.4886 37.7224 38.0224 33.5013 30.4245C29.6664 25.3467 20.838 25.3592 19.1496 33.8014C22.5265 27.8918 30.1244 27.0476 31.8128 34.6456C31.6065 38.2796 29.9057 40.8414 26.8371 43.8654C24.2278 45.6645 20.7472 48.3459 18.3054 51.5299C17.6932 50.6208 16.7935 49.8505 15.6751 48.8927C14.3053 47.7198 12.6074 46.2658 10.7074 43.932C7.25614 39.6925 7.00549 34.8226 11.1983 28.7361C13.766 26.1398 15.5718 23.9244 16.617 21.9823C18.305 18.9046 18.3054 15.2286 16.617 12.696C12.5073 7.40521 13.9023 2.69913 14.9285 0.0327148C11.2886 4.28325 12.3959 9.31909 13.2401 12.696C14.0843 16.0728 13.5608 18.5869 12.3959 21.1381C9.88426 23.8095 7.96529 23.8257 7.45713 21.9823C7.50943 20.4464 8.28553 19.2185 9.86322 16.917C10.8868 14.4672 10.8311 13.1812 9.86322 11.0075L9.019 10.1633L9.01906 13.5402C8.16187 16.5403 6.6519 18.4526 5.0415 20.492ZM16.617 57.4394C16.617 56.3969 17.5339 54.8957 17.5339 54.8957C17.5339 54.8957 18.3351 56.4094 18.3052 57.4515C18.2753 58.4937 17.3888 59.9589 17.3888 59.9589C17.3888 59.9589 16.617 58.482 16.617 57.4394Z" fill="#80543B"/>
<path d="M12.3959 37.1782C12.1821 40.7226 18.3132 48.1789 15.7727 45.6204C11.9715 42.4639 10.2165 38.0224 10.7074 35.4898C11.1983 32.9572 12.2539 31.8164 15.7727 27.8919C19.0589 24.2268 19.4426 23.0943 19.9938 19.4497C20.6516 15.1006 19.457 12.7307 17.4612 8.47488C24.0511 16.6044 23.1658 21.0113 17.4612 28.7361C14.3571 31.8508 12.6274 33.3404 12.3959 37.1782Z" stroke="black" stroke-width="0.1"/>
<path fill-rule="evenodd" clip-rule="evenodd" d="M5.0415 20.492C3.47985 22.4696 1.82376 24.5669 0.576896 27.8918C-1.65768 39.0643 3.33647 43.0082 13.2401 49.5798C13.388 49.7044 13.5325 49.8259 13.6734 49.9443C15.7167 51.6622 16.9922 52.7346 16.617 53.2183C14.9285 57.4394 15.4179 59.6783 17.4612 62.5047C20.2624 58.8916 19.9938 55.751 19.1496 52.3741C20.8676 50.7192 21.2832 50.4317 23.7463 48.7284C24.2677 48.3678 24.8809 47.9438 25.6175 47.43C29.8342 44.4886 37.7224 38.0224 33.5013 30.4245C29.6664 25.3467 20.838 25.3592 19.1496 33.8014C22.5265 27.8918 30.1244 27.0476 31.8128 34.6456C31.6065 38.2796 29.9057 40.8414 26.8371 43.8654C24.2278 45.6645 20.7472 48.3459 18.3054 51.5299C17.6932 50.6208 16.7935 49.8505 15.6751 48.8927C14.3053 47.7198 12.6074 46.2658 10.7074 43.932C7.25614 39.6925 7.00549 34.8226 11.1983 28.7361C13.766 26.1398 15.5718 23.9244 16.617 21.9823C18.305 18.9046 18.3054 15.2286 16.617 12.696C12.5073 7.40521 13.9023 2.69913 14.9285 0.0327148C11.2886 4.28325 12.3959 9.31909 13.2401 12.696C14.0843 16.0728 13.5608 18.5869 12.3959 21.1381C9.88426 23.8095 7.96529 23.8257 7.45713 21.9823C7.50943 20.4464 8.28553 19.2185 9.86322 16.917C10.8868 14.4672 10.8311 13.1812 9.86322 11.0075L9.019 10.1633L9.01906 13.5402C8.16187 16.5403 6.6519 18.4526 5.0415 20.492ZM16.617 57.4394C16.617 56.3969 17.5339 54.8957 17.5339 54.8957C17.5339 54.8957 18.3351 56.4094 18.3052 57.4515C18.2753 58.4937 17.3888 59.9589 17.3888 59.9589C17.3888 59.9589 16.617 58.482 16.617 57.4394Z" stroke="black" stroke-width="0.1"/>
<path d="M39.083 43.2686V42.9486H39.947C40.5017 42.9486 40.939 42.8739 41.259 42.7246C41.6004 42.5752 41.835 42.3192 41.963 41.9566C42.1124 41.5939 42.187 41.0819 42.187 40.4206V23.2046C42.187 22.5646 42.1124 22.0739 41.963 21.7326C41.835 21.3699 41.6004 21.1139 41.259 20.9646C40.939 20.8152 40.5017 20.7406 39.947 20.7406H39.083V20.4206H54.283L54.475 25.8606H54.155L54.059 24.0366C54.0164 23.1832 53.8884 22.5219 53.675 22.0526C53.483 21.5832 53.1524 21.2526 52.683 21.0606C52.2137 20.8472 51.563 20.7406 50.731 20.7406H44.363V31.1406H52.299V31.4606H44.363V42.9486H51.659C52.5337 42.9486 53.2164 42.8526 53.707 42.6606C54.1977 42.4472 54.5497 42.1059 54.763 41.6366C54.9764 41.1459 55.1044 40.4846 55.147 39.6526L55.243 37.8286H55.563L55.339 43.2686H39.083ZM63.4493 43.5886C61.9986 43.5886 60.9533 43.2259 60.3133 42.5006C59.6733 41.7539 59.3533 40.4846 59.3533 38.6926V26.4366H56.8893V26.1166C57.5719 26.1166 58.1586 26.0632 58.6493 25.9566C59.1399 25.8499 59.5453 25.6686 59.8653 25.4126C60.2279 25.1139 60.4946 24.7086 60.6653 24.1966C60.8573 23.6632 60.9959 23.0019 61.0813 22.2126H61.4013V26.1166H65.6893V26.4366H61.4013V39.4606C61.4013 40.8046 61.6039 41.7646 62.0093 42.3406C62.4146 42.9166 63.0546 43.2046 63.9293 43.2046C64.2493 43.2046 64.5586 43.1832 64.8573 43.1406C65.1559 43.0979 65.4759 43.0232 65.8173 42.9166V43.2366C65.5186 43.3432 65.1453 43.4286 64.6973 43.4926C64.2706 43.5566 63.8546 43.5886 63.4493 43.5886ZM74.7858 43.5886C72.5884 43.5886 70.8604 42.8312 69.6018 41.3166C68.3431 39.7806 67.7138 37.6259 67.7138 34.8526C67.7138 31.8446 68.2898 29.5939 69.4418 28.1006C70.6151 26.6072 72.2684 25.8606 74.4018 25.8606C76.3431 25.8606 77.8578 26.5326 78.9458 27.8766C80.0551 29.2206 80.6098 31.1619 80.6098 33.7006V34.3086H69.8258C69.8258 36.4206 70.0178 38.1379 70.4018 39.4606C70.7858 40.7619 71.3511 41.7219 72.0978 42.3406C72.8444 42.9592 73.7618 43.2686 74.8498 43.2686C75.6604 43.2686 76.3751 43.1299 76.9938 42.8526C77.6124 42.5539 78.1244 42.1379 78.5298 41.6046C78.9564 41.0499 79.2658 40.3886 79.4578 39.6206C79.6498 39.6846 79.7884 39.7912 79.8738 39.9406C79.9591 40.0899 80.0018 40.2606 80.0018 40.4526C80.0018 40.8579 79.8098 41.3059 79.4258 41.7966C79.0418 42.2872 78.4658 42.7139 77.6978 43.0766C76.9298 43.4179 75.9591 43.5886 74.7858 43.5886ZM78.4338 33.9886C78.4338 32.2606 78.2844 30.8206 77.9858 29.6686C77.7084 28.5166 77.2604 27.6526 76.6418 27.0766C76.0444 26.4792 75.2764 26.1806 74.3378 26.1806C73.3351 26.1806 72.5138 26.4792 71.8738 27.0766C71.2338 27.6526 70.7538 28.5166 70.4338 29.6686C70.1351 30.8206 69.9431 32.2606 69.8578 33.9886H78.4338ZM82.5833 43.2686V42.9486H83.1273C83.7673 42.9486 84.2579 42.8846 84.5993 42.7566C84.9619 42.6286 85.2073 42.3832 85.3353 42.0206C85.4633 41.6579 85.5273 41.1459 85.5273 40.4846V28.8686C85.5273 28.2072 85.4633 27.7059 85.3353 27.3646C85.2073 27.0019 84.9619 26.7566 84.5993 26.6286C84.2366 26.5006 83.6926 26.4366 82.9673 26.4366H82.6793V26.1166H87.5433V29.8926H87.6073C87.7779 29.2739 88.0339 28.6552 88.3753 28.0366C88.7166 27.3966 89.1859 26.8739 89.7833 26.4686C90.3806 26.0419 91.1486 25.8286 92.0873 25.8286C93.0259 25.8286 93.7619 26.0419 94.2953 26.4686C94.8286 26.8739 95.0953 27.4179 95.0953 28.1006C95.0953 28.5699 94.9353 28.9752 94.6153 29.3166C94.3166 29.6366 93.8046 29.7966 93.0793 29.7966C93.0793 29.0286 92.9939 28.4206 92.8233 27.9726C92.6526 27.5032 92.4073 27.1726 92.0873 26.9806C91.7886 26.7672 91.4259 26.6606 90.9993 26.6606C90.3806 26.6606 89.8473 26.8632 89.3993 27.2686C88.9513 27.6739 88.5886 28.2179 88.3113 28.9006C88.0553 29.5832 87.8633 30.3299 87.7353 31.1406C87.6286 31.9512 87.5753 32.7726 87.5753 33.6046V40.3886C87.5753 41.0926 87.6393 41.6366 87.7673 42.0206C87.9166 42.3832 88.1619 42.6286 88.5033 42.7566C88.8659 42.8846 89.3566 42.9486 89.9753 42.9486H90.7113V43.2686H82.5833ZM95.8443 43.2686V42.9486H96.2923C97.0176 42.9486 97.5616 42.8846 97.9243 42.7566C98.2869 42.6072 98.5323 42.3406 98.6603 41.9566C98.7883 41.5726 98.8523 41.0072 98.8523 40.2606V29.0926C98.8523 28.3459 98.7883 27.7912 98.6603 27.4286C98.5323 27.0446 98.2976 26.7886 97.9563 26.6606C97.6363 26.5112 97.1456 26.4366 96.4843 26.4366H96.0043V26.1166H100.9V29.3486H100.964C101.242 28.4312 101.636 27.7272 102.148 27.2366C102.682 26.7246 103.279 26.3726 103.94 26.1806C104.602 25.9672 105.263 25.8606 105.924 25.8606C107.802 25.8606 109.178 26.3512 110.052 27.3326C110.948 28.3139 111.396 29.8606 111.396 31.9726V40.2606C111.396 41.0072 111.46 41.5726 111.588 41.9566C111.716 42.3406 111.951 42.6072 112.292 42.7566C112.655 42.8846 113.167 42.9486 113.828 42.9486H114.148V43.2686H109.348V31.1086C109.348 29.7006 109.06 28.5592 108.484 27.6846C107.908 26.7886 106.916 26.3406 105.508 26.3406C104.314 26.3406 103.386 26.6179 102.724 27.1726C102.063 27.7272 101.594 28.4419 101.316 29.3166C101.039 30.1699 100.9 31.0659 100.9 32.0046V40.2606C100.9 41.0072 100.964 41.5726 101.092 41.9566C101.22 42.3406 101.466 42.6072 101.828 42.7566C102.191 42.8846 102.724 42.9486 103.428 42.9486H103.748V43.2686H95.8443ZM115.071 43.2686V42.9486H115.711C116.436 42.9486 116.98 42.8846 117.343 42.7566C117.706 42.6286 117.951 42.3939 118.079 42.0526C118.207 41.6899 118.271 41.1779 118.271 40.5166V28.9326C118.271 28.2499 118.207 27.7272 118.079 27.3646C117.951 27.0019 117.706 26.7566 117.343 26.6286C117.002 26.5006 116.511 26.4366 115.871 26.4366H115.551V26.1166H120.319V40.4526C120.319 41.1352 120.383 41.6579 120.511 42.0206C120.639 42.3832 120.895 42.6286 121.279 42.7566C121.663 42.8846 122.196 42.9486 122.879 42.9486H123.551V43.2686H115.071ZM119.135 22.6606C118.836 22.6606 118.58 22.5539 118.367 22.3406C118.175 22.1059 118.079 21.6899 118.079 21.0926C118.079 20.5166 118.175 20.1219 118.367 19.9086C118.58 19.6739 118.836 19.5566 119.135 19.5566C119.434 19.5566 119.679 19.6739 119.871 19.9086C120.084 20.1219 120.191 20.5272 120.191 21.1246C120.191 21.7006 120.084 22.1059 119.871 22.3406C119.679 22.5539 119.434 22.6606 119.135 22.6606ZM124.791 43.2686V42.9166L134.711 26.5966H128.535C127.81 26.5966 127.234 26.6819 126.807 26.8526C126.402 27.0232 126.103 27.3219 125.911 27.7486C125.741 28.1539 125.613 28.7299 125.527 29.4766L125.463 30.2766H125.143L125.431 26.1166H137.047V26.4686L127.127 42.7886H133.815C134.541 42.7886 135.106 42.6926 135.511 42.5006C135.938 42.3086 136.237 41.9886 136.407 41.5406C136.599 41.0712 136.727 40.4312 136.791 39.6206L136.855 38.4366H137.175L136.983 43.2686H124.791ZM147.255 43.5886C145.057 43.5886 143.329 42.8312 142.071 41.3166C140.812 39.7806 140.183 37.6259 140.183 34.8526C140.183 31.8446 140.759 29.5939 141.911 28.1006C143.084 26.6072 144.737 25.8606 146.871 25.8606C148.812 25.8606 150.327 26.5326 151.415 27.8766C152.524 29.2206 153.079 31.1619 153.079 33.7006V34.3086H142.295C142.295 36.4206 142.487 38.1379 142.871 39.4606C143.255 40.7619 143.82 41.7219 144.567 42.3406C145.313 42.9592 146.231 43.2686 147.319 43.2686C148.129 43.2686 148.844 43.1299 149.463 42.8526C150.081 42.5539 150.593 42.1379 150.999 41.6046C151.425 41.0499 151.735 40.3886 151.927 39.6206C152.119 39.6846 152.257 39.7912 152.343 39.9406C152.428 40.0899 152.471 40.2606 152.471 40.4526C152.471 40.8579 152.279 41.3059 151.895 41.7966C151.511 42.2872 150.935 42.7139 150.167 43.0766C149.399 43.4179 148.428 43.5886 147.255 43.5886ZM150.903 33.9886C150.903 32.2606 150.753 30.8206 150.455 29.6686C150.177 28.5166 149.729 27.6526 149.111 27.0766C148.513 26.4792 147.745 26.1806 146.807 26.1806C145.804 26.1806 144.983 26.4792 144.343 27.0766C143.703 27.6526 143.223 28.5166 142.903 29.6686C142.604 30.8206 142.412 32.2606 142.327 33.9886H150.903Z" fill="#80543B"/>
</svg>
